<?xml version="1.0" encoding="UTF-8"?>
<!DOCTYPE svg PUBLIC "-//W3C//DTD SVG 1.1//EN" "http://www.w3.org/Graphics/SVG/1.1/DTD/svg11.dtd">
<svg xmlns="http://www.w3.org/2000/svg" version="1.1" width="842px" height="595px" style="shape-rendering:geometricPrecision; text-rendering:geometricPrecision; image-rendering:optimizeQuality; fill-rule:evenodd; clip-rule:evenodd" xmlns:xlink="http://www.w3.org/1999/xlink">
<g><path style="opacity:0.847" fill="#0c0f0f" d="M 334.5,-0.5 C 335.5,-0.5 336.5,-0.5 337.5,-0.5C 345.593,19.737 357.593,37.0704 373.5,51.5C 385.762,41.0625 398.429,31.2292 411.5,22C 421.884,16.6314 432.051,10.798 442,4.5C 444.628,5.7555 445.628,7.7555 445,10.5C 436.524,32.4031 431.524,55.0698 430,78.5C 449.234,82.9071 468.734,85.2404 488.5,85.5C 489.614,86.723 489.781,88.0563 489,89.5C 477.366,104.97 465.533,120.303 453.5,135.5C 467.339,146.361 481.673,156.361 496.5,165.5C 496.5,167.167 496.5,168.833 496.5,170.5C 479.4,174.192 462.4,178.358 445.5,183C 445.167,183.333 444.833,183.667 444.5,184C 449.436,188.389 453.436,192.889 456.5,197.5C 456.5,197.833 456.5,198.167 456.5,198.5C 451.503,194.336 447.003,189.669 443,184.5C 442.506,182.866 442.34,181.199 442.5,179.5C 458.941,175.839 475.274,171.673 491.5,167C 477.113,157.145 463.113,146.812 449.5,136C 461.325,120.012 473.325,104.178 485.5,88.5C 465.39,87.4224 445.39,85.4224 425.5,82.5C 427.587,58.4393 432.753,35.1059 441,12.5C 441.667,11.1667 441.667,9.83333 441,8.5C 416.472,21.185 393.972,36.8516 373.5,55.5C 356.938,41.0538 344.271,23.7205 335.5,3.5C 327.354,23.6372 323.854,44.6372 325,66.5C 309.808,65.5155 295.641,60.8489 282.5,52.5C 282.167,53 281.833,53.5 281.5,54C 284.715,61.2631 287.215,68.7631 289,76.5C 292.483,83.443 295.816,90.443 299,97.5C 299.687,99.9203 299.187,102.087 297.5,104C 287.195,110.982 275.861,115.482 263.5,117.5C 270.458,124.959 277.625,132.292 285,139.5C 287.981,143.813 288.148,148.147 285.5,152.5C 281.682,155.818 278.015,159.318 274.5,163C 270.055,166.039 265.388,168.706 260.5,171C 267.501,174.004 274.001,177.838 280,182.5C 281.039,175.218 285.205,170.885 292.5,169.5C 293.167,165.687 293.834,162.021 294.5,158.5C 295.167,158.5 295.833,158.5 296.5,158.5C 297.413,164.491 300.08,169.658 304.5,174C 310.697,175.886 317.03,176.72 323.5,176.5C 323.5,177.5 323.5,178.5 323.5,179.5C 311.556,181.559 302.389,177.559 296,167.5C 293.937,179.361 293.103,191.195 293.5,203C 297.556,203.351 301.223,204.685 304.5,207C 300.099,207.356 295.766,206.856 291.5,205.5C 288.64,205.827 287.307,207.493 287.5,210.5C 287.466,213.433 288.299,216.1 290,218.5C 294.355,222.356 298.855,226.023 303.5,229.5C 302.635,230.583 301.635,230.749 300.5,230C 297.667,227.833 294.833,225.667 292,223.5C 291.536,224.094 291.369,224.761 291.5,225.5C 291.158,226.338 290.492,226.672 289.5,226.5C 289.039,221.947 287.539,217.614 285,213.5C 283.021,217.956 280.187,221.79 276.5,225C 281.082,226.026 285.416,227.526 289.5,229.5C 290.833,230.167 290.833,230.833 289.5,231.5C 284.102,230.484 278.769,229.15 273.5,227.5C 272.417,226.635 272.251,225.635 273,224.5C 276.794,221.622 279.294,218.289 280.5,214.5C 276.703,212.717 272.703,211.55 268.5,211C 267.643,210.311 266.977,209.478 266.5,208.5C 272.048,203.279 277.714,198.112 283.5,193C 282.671,191.184 281.837,189.351 281,187.5C 272.636,181.637 264.136,175.971 255.5,170.5C 255.977,169.522 256.643,168.689 257.5,168C 268.07,164.545 276.737,158.378 283.5,149.5C 284.52,147.568 284.687,145.568 284,143.5C 275.459,134.295 266.959,125.129 258.5,116C 258.645,115.228 258.978,114.561 259.5,114C 274.049,114.049 286.383,109.049 296.5,99C 291.551,91.4101 287.718,83.2434 285,74.5C 283.336,68.007 281.169,61.6736 278.5,55.5C 278.101,53.102 278.101,50.602 278.5,48C 286.171,51.9068 294.171,55.5735 302.5,59C 309.06,61.037 315.727,62.537 322.5,63.5C 322.334,55.4931 322.5,47.4931 323,39.5C 323.226,36.905 323.726,34.405 324.5,32C 323.941,31.2753 323.608,30.4419 323.5,29.5C 325.683,22.0884 327.849,14.7551 330,7.5C 331.259,4.64408 332.759,1.97741 334.5,-0.5 Z"/></g>
<g><path style="opacity:1" fill="#b5e5f9" d="M 456.5,198.5 C 461.267,204.442 466.267,210.275 471.5,216C 459.446,218.203 447.446,220.536 435.5,223C 435.043,223.414 434.709,223.914 434.5,224.5C 436.395,232.244 438.228,239.911 440,247.5C 429.416,243.868 418.583,241.201 407.5,239.5C 407.769,246.648 408.603,253.648 410,260.5C 403.854,259.674 398.021,257.84 392.5,255C 394.628,251.87 397.128,249.037 400,246.5C 401.322,243.035 402.822,239.702 404.5,236.5C 405.725,235.063 406.725,233.396 407.5,231.5C 421.231,231.601 428.064,224.934 428,211.5C 426.697,209.06 425.53,206.56 424.5,204C 422.672,202.337 421.005,200.504 419.5,198.5C 425.782,180.161 429.448,161.327 430.5,142C 431.172,131.188 429.672,120.688 426,110.5C 418.873,100.281 410.373,91.2809 400.5,83.5C 396.203,81.3515 391.87,79.1848 387.5,77C 344.667,64.1622 316.833,78.9955 304,121.5C 293.487,129.987 290.654,140.487 295.5,153C 294.594,154.699 294.261,156.533 294.5,158.5C 293.834,162.021 293.167,165.687 292.5,169.5C 285.205,170.885 281.039,175.218 280,182.5C 274.001,177.838 267.501,174.004 260.5,171C 265.388,168.706 270.055,166.039 274.5,163C 278.015,159.318 281.682,155.818 285.5,152.5C 288.148,148.147 287.981,143.813 285,139.5C 277.625,132.292 270.458,124.959 263.5,117.5C 275.861,115.482 287.195,110.982 297.5,104C 299.187,102.087 299.687,99.9203 299,97.5C 295.816,90.443 292.483,83.443 289,76.5C 287.215,68.7631 284.715,61.2631 281.5,54C 281.833,53.5 282.167,53 282.5,52.5C 295.641,60.8489 309.808,65.5155 325,66.5C 323.854,44.6372 327.354,23.6372 335.5,3.5C 344.271,23.7205 356.938,41.0538 373.5,55.5C 393.972,36.8516 416.472,21.185 441,8.5C 441.667,9.83333 441.667,11.1667 441,12.5C 432.753,35.1059 427.587,58.4393 425.5,82.5C 445.39,85.4224 465.39,87.4224 485.5,88.5C 473.325,104.178 461.325,120.012 449.5,136C 463.113,146.812 477.113,157.145 491.5,167C 475.274,171.673 458.941,175.839 442.5,179.5C 442.34,181.199 442.506,182.866 443,184.5C 447.003,189.669 451.503,194.336 456.5,198.5 Z"/></g>
<g><path style="opacity:1" fill="#e1d6c7" d="M 403.5,234.5 C 397.397,246.945 388.397,256.945 376.5,264.5C 370.607,259.646 363.774,257.312 356,257.5C 348.168,258.021 340.335,258.521 332.5,259C 330.509,259.374 328.842,260.207 327.5,261.5C 324.948,262.693 322.448,264.027 320,265.5C 312.786,260.888 306.119,255.554 300,249.5C 295.315,242.06 292.482,234.06 291.5,225.5C 291.369,224.761 291.536,224.094 292,223.5C 294.833,225.667 297.667,227.833 300.5,230C 301.635,230.749 302.635,230.583 303.5,229.5C 298.855,226.023 294.355,222.356 290,218.5C 288.299,216.1 287.466,213.433 287.5,210.5C 287.307,207.493 288.64,205.827 291.5,205.5C 295.766,206.856 300.099,207.356 304.5,207C 301.223,204.685 297.556,203.351 293.5,203C 293.103,191.195 293.937,179.361 296,167.5C 302.389,177.559 311.556,181.559 323.5,179.5C 323.5,178.5 323.5,177.5 323.5,176.5C 317.03,176.72 310.697,175.886 304.5,174C 300.08,169.658 297.413,164.491 296.5,158.5C 296.897,157.475 297.563,157.308 298.5,158C 302.543,164.696 308.543,168.362 316.5,169C 333.466,170.943 344.299,163.776 349,147.5C 349.681,132.686 343.181,122.519 329.5,117C 322.686,116.009 316.02,116.509 309.5,118.5C 309.167,118 308.833,117.5 308.5,117C 309.957,112.684 311.79,108.517 314,104.5C 315.906,105.131 317.906,105.464 320,105.5C 333.35,102.9 346.85,102.067 360.5,103C 364.716,103.72 368.716,105.053 372.5,107C 381.521,112.844 390.188,119.178 398.5,126C 404.011,127.984 407.011,126.151 407.5,120.5C 407.332,118.829 406.665,117.496 405.5,116.5C 405.33,113.796 403.997,112.129 401.5,111.5C 392.01,101.084 380.344,94.2504 366.5,91C 355.043,87.2216 343.376,86.5549 331.5,89C 329.934,89.6082 328.6,90.4415 327.5,91.5C 325.16,92.086 322.993,93.086 321,94.5C 322.237,91.224 324.403,88.3906 327.5,86C 332.952,82.6247 338.618,79.6247 344.5,77C 369.991,72.0754 392.158,78.2421 411,95.5C 415.333,101.167 419.667,106.833 424,112.5C 427.74,125.603 429.073,138.937 428,152.5C 423.322,180.971 415.155,208.304 403.5,234.5 Z"/></g>
<g><path style="opacity:1" fill="#191a1a" d="M 404.5,236.5 C 404.672,235.508 404.338,234.842 403.5,234.5C 415.155,208.304 423.322,180.971 428,152.5C 429.073,138.937 427.74,125.603 424,112.5C 419.667,106.833 415.333,101.167 411,95.5C 392.158,78.2421 369.991,72.0754 344.5,77C 338.618,79.6247 332.952,82.6247 327.5,86C 324.403,88.3906 322.237,91.224 321,94.5C 322.993,93.086 325.16,92.086 327.5,91.5C 323.853,94.6363 320.02,97.6363 316,100.5C 315.495,103.114 316.662,104.447 319.5,104.5C 332.766,99.9831 346.432,98.4831 360.5,100C 366.043,101.438 371.376,103.438 376.5,106C 384.329,111.827 392.162,117.661 400,123.5C 401.73,124.649 403.396,124.649 405,123.5C 405.497,121.19 405.663,118.857 405.5,116.5C 406.665,117.496 407.332,118.829 407.5,120.5C 407.011,126.151 404.011,127.984 398.5,126C 390.188,119.178 381.521,112.844 372.5,107C 368.716,105.053 364.716,103.72 360.5,103C 346.85,102.067 333.35,102.9 320,105.5C 317.906,105.464 315.906,105.131 314,104.5C 311.79,108.517 309.957,112.684 308.5,117C 308.833,117.5 309.167,118 309.5,118.5C 316.02,116.509 322.686,116.009 329.5,117C 343.181,122.519 349.681,132.686 349,147.5C 344.299,163.776 333.466,170.943 316.5,169C 308.543,168.362 302.543,164.696 298.5,158C 297.563,157.308 296.897,157.475 296.5,158.5C 295.833,158.5 295.167,158.5 294.5,158.5C 294.261,156.533 294.594,154.699 295.5,153C 290.654,140.487 293.487,129.987 304,121.5C 316.833,78.9955 344.667,64.1622 387.5,77C 391.87,79.1848 396.203,81.3515 400.5,83.5C 410.373,91.2809 418.873,100.281 426,110.5C 429.672,120.688 431.172,131.188 430.5,142C 429.448,161.327 425.782,180.161 419.5,198.5C 421.005,200.504 422.672,202.337 424.5,204C 425.53,206.56 426.697,209.06 428,211.5C 428.064,224.934 421.231,231.601 407.5,231.5C 406.725,233.396 405.725,235.063 404.5,236.5 Z"/></g>
<g><path style="opacity:1" fill="#1c1c1c" d="M 401.5,111.5 C 395.387,107.938 389.387,104.104 383.5,100C 365.782,90.6995 347.115,87.8662 327.5,91.5C 328.6,90.4415 329.934,89.6082 331.5,89C 343.376,86.5549 355.043,87.2216 366.5,91C 380.344,94.2504 392.01,101.084 401.5,111.5 Z"/></g>
<g><path style="opacity:1" fill="#a9dff5" d="M 401.5,111.5 C 401.67,114.204 403.003,115.871 405.5,116.5C 405.663,118.857 405.497,121.19 405,123.5C 403.396,124.649 401.73,124.649 400,123.5C 392.162,117.661 384.329,111.827 376.5,106C 371.376,103.438 366.043,101.438 360.5,100C 346.432,98.4831 332.766,99.9831 319.5,104.5C 316.662,104.447 315.495,103.114 316,100.5C 320.02,97.6363 323.853,94.6363 327.5,91.5C 347.115,87.8662 365.782,90.6995 383.5,100C 389.387,104.104 395.387,107.938 401.5,111.5 Z"/></g>
<g><path style="opacity:1" fill="#111212" d="M 401.5,111.5 C 403.997,112.129 405.33,113.796 405.5,116.5C 403.003,115.871 401.67,114.204 401.5,111.5 Z"/></g>
<g><path style="opacity:1" fill="#fbfbfb" d="M 316.5,118.5 C 340.698,119.184 349.865,131.184 344,154.5C 330.034,171.031 315.367,171.697 300,156.5C 292.944,143.394 295.11,132.061 306.5,122.5C 310.013,121.336 313.346,120.002 316.5,118.5 Z"/></g>
<g><path style="opacity:1" fill="#181717" d="M 375.5,129.5 C 390.224,129.101 400.724,135.435 407,148.5C 408.8,171.702 397.967,182.869 374.5,182C 361.802,179.636 353.968,172.136 351,159.5C 350.18,152.779 351.846,146.779 356,141.5C 361.252,135.299 367.752,131.299 375.5,129.5 Z"/></g>
<g><path style="opacity:1" fill="#fbfbfb" d="M 375.5,132.5 C 395.007,131.843 404.84,141.177 405,160.5C 398.313,177.481 386.146,183.314 368.5,178C 354.047,169.313 350.547,157.48 358,142.5C 362.74,136.89 368.573,133.557 375.5,132.5 Z"/></g>
<g><path style="opacity:1" fill="#0a0a0a" d="M 322.5,156.5 C 328.488,156.664 329.821,159.164 326.5,164C 320.403,164.147 319.07,161.647 322.5,156.5 Z"/></g>
<g><path style="opacity:1" fill="#c5c5c5" d="M 322.5,158.5 C 324.337,158.639 324.67,159.306 323.5,160.5C 322.702,160.043 322.369,159.376 322.5,158.5 Z"/></g>
<g><path style="opacity:1" fill="#1c1c1c" d="M 380.5,169.5 C 385.357,169.545 387.023,171.879 385.5,176.5C 381.552,179.624 379.218,178.624 378.5,173.5C 378.752,171.927 379.418,170.594 380.5,169.5 Z"/></g>
<g><path style="opacity:1" fill="#ded3c4" d="M 288.5,172.5 C 290.288,172.215 291.955,172.548 293.5,173.5C 292.335,180.817 291.168,188.15 290,195.5C 283.929,190.148 282.096,183.815 284.5,176.5C 286.188,175.479 287.521,174.145 288.5,172.5 Z"/></g>
<g><path style="opacity:1" fill="#161514" d="M 334.5,167.5 C 335.376,167.369 336.043,167.702 336.5,168.5C 333.923,174.652 331.09,180.652 328,186.5C 326.944,190.624 327.778,194.29 330.5,197.5C 335.887,194.446 339.887,190.113 342.5,184.5C 344.167,183.5 345.5,182.167 346.5,180.5C 346.833,181 347.167,181.5 347.5,182C 343.572,188.262 338.906,193.929 333.5,199C 331.527,199.495 329.527,199.662 327.5,199.5C 325.922,195.289 325.422,190.956 326,186.5C 327.761,179.647 330.595,173.314 334.5,167.5 Z"/></g>
<g><path style="opacity:1" fill="#1c1b1a" d="M 356.5,184.5 C 361.582,188.035 367.249,190.535 373.5,192C 379.8,193.422 385.466,192.256 390.5,188.5C 391.731,189.651 391.731,190.817 390.5,192C 385.298,195.266 379.631,196.266 373.5,195C 367.039,192.955 361.039,189.955 355.5,186C 356.056,185.617 356.389,185.117 356.5,184.5 Z"/></g>
<g><path style="opacity:1" fill="#b5e5f6" d="M 283.5,196.5 C 287.099,195.938 289.099,197.438 289.5,201C 288.046,203.134 286.546,205.301 285,207.5C 284.51,208.793 284.343,210.127 284.5,211.5C 280.055,210.805 275.722,209.638 271.5,208C 276.055,204.609 280.055,200.775 283.5,196.5 Z"/></g>
<g><path style="opacity:1" fill="#dfd4c6" d="M 418.5,202.5 C 424.044,206.267 426.211,211.6 425,218.5C 422.313,225.681 417.147,228.681 409.5,227.5C 412.309,219.071 415.309,210.737 418.5,202.5 Z"/></g>
<g><path style="opacity:1" fill="#b0dfef" d="M 289.5,226.5 C 289.5,227.5 289.5,228.5 289.5,229.5C 285.416,227.526 281.082,226.026 276.5,225C 280.187,221.79 283.021,217.956 285,213.5C 287.539,217.614 289.039,221.947 289.5,226.5 Z"/></g>
<g><path style="opacity:1" fill="#1d1c1b" d="M 362.5,219.5 C 369.05,219.303 375.05,220.97 380.5,224.5C 382.263,230.046 380.596,234.213 375.5,237C 371.116,239.208 366.449,240.041 361.5,239.5C 361.5,238.5 361.5,237.5 361.5,236.5C 367.971,237.655 373.471,235.989 378,231.5C 378.808,229.421 378.641,227.421 377.5,225.5C 373.074,223.935 368.574,222.602 364,221.5C 362.97,221.164 362.47,220.497 362.5,219.5 Z"/></g>
<g><path style="opacity:1" fill="#1a1918" d="M 293.5,209.5 C 305.646,217.163 318.646,222.996 332.5,227C 344.466,228.614 356.466,228.781 368.5,227.5C 368.5,228.5 368.5,229.5 368.5,230.5C 354.782,230.906 341.115,230.406 327.5,229C 315.11,224.245 303.443,218.245 292.5,211C 293.056,210.617 293.389,210.117 293.5,209.5 Z"/></g>
<g><path style="opacity:1" fill="#dfd4c6" d="M 376.5,290.5 C 374.669,295.175 371.503,298.842 367,301.5C 363.211,301.055 361.877,299.055 363,295.5C 363.667,294.167 364.333,292.833 365,291.5C 366.11,293.037 367.61,293.703 369.5,293.5C 368.637,290.626 367.303,287.959 365.5,285.5C 366.362,281.547 366.695,277.547 366.5,273.5C 365.5,273.5 364.5,273.5 363.5,273.5C 363.868,281.428 362.701,289.095 360,296.5C 355.088,300.553 349.588,302.72 343.5,303C 352.401,295.072 355.068,285.239 351.5,273.5C 350.925,280.247 350.091,286.914 349,293.5C 345.682,297.097 342.182,300.597 338.5,304C 335.621,304.874 332.955,304.54 330.5,303C 333.231,300.374 335.064,297.207 336,293.5C 336.499,287.509 336.666,281.509 336.5,275.5C 335.5,275.5 334.5,275.5 333.5,275.5C 333.666,282.175 333.5,288.842 333,295.5C 329.751,302.556 324.584,304.389 317.5,301C 315.707,298.205 313.54,295.705 311,293.5C 310.135,291.112 310.968,289.612 313.5,289C 316.407,288.146 318.74,288.979 320.5,291.5C 320.833,291 321.167,290.5 321.5,290C 318.928,286.94 316.594,283.773 314.5,280.5C 313.777,282.164 314.11,283.831 315.5,285.5C 313.78,286.934 311.78,287.767 309.5,288C 308.17,292.527 309.337,296.361 313,299.5C 313.667,300.5 313.667,301.5 313,302.5C 310.345,300.947 307.512,299.78 304.5,299C 302.455,296.414 300.789,293.58 299.5,290.5C 308.667,279.99 318.667,270.657 329.5,262.5C 340.708,260.233 352.041,259.4 363.5,260C 371.833,261.331 376.333,266.165 377,274.5C 377.609,279.861 377.442,285.195 376.5,290.5 Z"/></g>
<g><path style="opacity:1" fill="#fcfcfc" d="M 269.5,375.5 C 248.367,397.466 226.7,418.966 204.5,440C 197.943,442.723 191.277,443.056 184.5,441C 180.878,437.721 178.545,433.721 177.5,429C 178.583,420.084 181.083,411.584 185,403.5C 197.409,379.005 212.075,356.005 229,334.5C 229.791,333.255 230.291,331.922 230.5,330.5C 236.874,323.94 242.374,316.607 247,308.5C 254.816,299.53 262.149,290.196 269,280.5C 272.534,276.631 276.367,273.131 280.5,270C 292.442,268.419 304.442,268.085 316.5,269C 308.06,277.778 299.393,286.111 290.5,294C 289.552,294.483 288.552,294.649 287.5,294.5C 287.649,295.552 287.483,296.552 287,297.5C 258.25,328.607 229.25,359.607 200,390.5C 196.579,396.342 193.412,402.342 190.5,408.5C 191.5,409.833 192.5,409.833 193.5,408.5C 195.455,405.01 196.955,401.344 198,397.5C 200.043,395.792 201.71,393.792 203,391.5C 230.635,360.864 258.635,330.531 287,300.5C 287.333,303.833 287.667,307.167 288,310.5C 291.477,315.634 295.31,320.467 299.5,325C 303.057,326.408 306.724,327.408 310.5,328C 296.624,343.705 282.957,359.539 269.5,375.5 Z"/></g>
<g><path style="opacity:1" fill="#f6cda7" d="M 431.5,472.5 C 423.216,470.587 414.883,468.753 406.5,467C 405.397,465.32 405.73,463.82 407.5,462.5C 407,462.167 406.5,461.833 406,461.5C 402.763,463.537 399.597,465.704 396.5,468C 392.388,468.473 388.388,467.973 384.5,466.5C 381.168,464 378.334,461 376,457.5C 375.333,455.167 375.333,452.833 376,450.5C 377.649,447.725 378.816,444.725 379.5,441.5C 379.167,440.833 378.833,440.167 378.5,439.5C 376.842,442.088 375.175,444.755 373.5,447.5C 370.182,444.683 367.015,441.683 364,438.5C 355.82,426.141 349.82,412.807 346,398.5C 338.664,355.695 352.83,322.195 388.5,298C 407.378,287.44 427.378,284.607 448.5,289.5C 447.5,290.333 446.5,291.167 445.5,292C 439.509,294.212 433.509,296.212 427.5,298C 432.239,298.726 436.905,298.393 441.5,297C 445.087,294.417 448.92,292.25 453,290.5C 454.635,290.878 456.135,291.544 457.5,292.5C 450.691,297.478 445.524,303.811 442,311.5C 439.374,331.756 447.874,344.589 467.5,350C 484.396,350.816 495.562,343.316 501,327.5C 513.193,345.428 520.026,365.262 521.5,387C 520.318,412.58 510.318,433.914 491.5,451C 480.167,457.333 468.833,463.667 457.5,470C 448.97,472.139 440.303,472.973 431.5,472.5 Z"/></g>
<g><path style="opacity:0.831" fill="#12100d" d="M 456.5,197.5 C 462.861,203.142 469.028,209.142 475,215.5C 475.667,216.167 475.667,216.833 475,217.5C 463.134,221.247 450.967,223.58 438.5,224.5C 439.333,226.752 439.333,228.919 438.5,231C 441.506,237.193 443.506,243.693 444.5,250.5C 432.974,248.254 421.641,245.754 410.5,243C 411.377,249.616 412.377,256.449 413.5,263.5C 405.257,263.029 397.423,261.029 390,257.5C 386.553,260.793 383.053,263.96 379.5,267C 391.357,268.427 403.191,267.927 415,265.5C 424.007,267.003 432.507,270.003 440.5,274.5C 447.787,279.957 455.454,284.791 463.5,289C 488.943,287.795 502.109,299.629 503,324.5C 506.471,327.94 510.304,330.94 514.5,333.5C 515.948,335.667 517.115,338 518,340.5C 520.082,337.041 522.915,334.374 526.5,332.5C 529.137,334.827 532.137,335.993 535.5,336C 545.298,327.602 555.632,319.935 566.5,313C 594.169,301.214 621.836,289.214 649.5,277C 650.88,275.075 652.38,273.241 654,271.5C 661.615,258.598 668.948,245.598 676,232.5C 677,231.167 678,231.167 679,232.5C 680.036,235.753 680.703,239.086 681,242.5C 682.781,239.667 684.281,236.667 685.5,233.5C 686.728,231.679 688.394,230.679 690.5,230.5C 690.335,234.182 690.501,237.848 691,241.5C 691.996,239.34 693.496,237.673 695.5,236.5C 695.389,235.883 695.056,235.383 694.5,235C 695.973,234.29 696.64,233.124 696.5,231.5C 697.833,231.5 699.167,231.5 700.5,231.5C 700.665,235.182 700.499,238.848 700,242.5C 689.402,258.798 690.569,259.632 703.5,245C 706.72,242.249 710.386,240.749 714.5,240.5C 714.718,248.226 712.051,254.726 706.5,260C 699.501,268.333 691.501,276.333 682.5,284C 688.709,285.737 694.709,288.071 700.5,291C 704.762,293.691 706.762,297.524 706.5,302.5C 699.93,302.034 693.43,301.034 687,299.5C 678.008,301.538 669.008,301.871 660,300.5C 631.95,314.775 603.784,328.942 575.5,343C 567.023,349.309 558.69,355.809 550.5,362.5C 552.161,365.77 552.494,369.103 551.5,372.5C 546.983,375.06 542.65,377.893 538.5,381C 553.225,387.912 558.225,398.912 553.5,414C 541.575,433.184 529.909,452.517 518.5,472C 530.768,512.553 543.102,553.387 555.5,594.5C 554.5,594.5 553.5,594.5 552.5,594.5C 542.238,560.212 532.071,525.878 522,491.5C 520.289,485.651 518.122,479.985 515.5,474.5C 501.566,491.059 487.733,507.725 474,524.5C 473.51,525.793 473.343,527.127 473.5,528.5C 468.187,529.362 462.854,529.529 457.5,529C 454.035,528.35 451.035,526.85 448.5,524.5C 447.522,524.977 446.689,525.643 446,526.5C 445.933,532.098 445.099,537.431 443.5,542.5C 443.5,540.833 443.5,539.167 443.5,537.5C 443.682,531.634 443.015,525.968 441.5,520.5C 441.5,519.833 441.833,519.5 442.5,519.5C 442.892,521.179 443.392,522.846 444,524.5C 448.703,519.965 453.203,515.298 457.5,510.5C 457.5,509.833 457.833,509.5 458.5,509.5C 462.49,513.495 466.156,517.829 469.5,522.5C 470.002,523.521 470.668,523.688 471.5,523C 486.786,504.926 501.952,486.759 517,468.5C 527.065,451.375 537.399,434.375 548,417.5C 556.234,401.448 552.068,389.781 535.5,382.5C 531.325,384.084 527.659,386.418 524.5,389.5C 522.384,408.725 515.551,426.059 504,441.5C 498.761,447.41 492.928,452.577 486.5,457C 477.324,462.089 467.99,466.922 458.5,471.5C 451.541,480.127 443.874,488.127 435.5,495.5C 434.833,495.5 434.167,495.5 433.5,495.5C 439.825,488.675 446.325,482.008 453,475.5C 453.667,474.833 453.667,474.167 453,473.5C 451.644,474.38 450.144,474.714 448.5,474.5C 442.402,475.117 436.735,474.45 431.5,472.5C 440.303,472.973 448.97,472.139 457.5,470C 468.833,463.667 480.167,457.333 491.5,451C 510.318,433.914 520.318,412.58 521.5,387C 520.026,365.262 513.193,345.428 501,327.5C 495.562,343.316 484.396,350.816 467.5,350C 447.874,344.589 439.374,331.756 442,311.5C 445.524,303.811 450.691,297.478 457.5,292.5C 456.135,291.544 454.635,290.878 453,290.5C 448.92,292.25 445.087,294.417 441.5,297C 436.905,298.393 432.239,298.726 427.5,298C 433.509,296.212 439.509,294.212 445.5,292C 446.5,291.167 447.5,290.333 448.5,289.5C 427.378,284.607 407.378,287.44 388.5,298C 352.83,322.195 338.664,355.695 346,398.5C 349.82,412.807 355.82,426.141 364,438.5C 367.015,441.683 370.182,444.683 373.5,447.5C 375.175,444.755 376.842,442.088 378.5,439.5C 378.833,440.167 379.167,440.833 379.5,441.5C 378.816,444.725 377.649,447.725 376,450.5C 375.333,452.833 375.333,455.167 376,457.5C 378.334,461 381.168,464 384.5,466.5C 384.5,467.167 384.5,467.833 384.5,468.5C 375.11,465.64 366.776,460.974 359.5,454.5C 363.771,456.297 368.104,458.13 372.5,460C 378.288,465.934 378.788,465.434 374,458.5C 373.667,455.5 373.333,452.5 373,449.5C 353.927,433.017 343.593,412.017 342,386.5C 339.7,346.243 355.533,315.743 389.5,295C 389.043,294.586 388.709,294.086 388.5,293.5C 391.97,285.531 390.636,284.531 384.5,290.5C 383.702,288.922 383.202,287.256 383,285.5C 380.914,287.739 379.08,290.073 377.5,292.5C 376.662,292.158 376.328,291.492 376.5,290.5C 377.442,285.195 377.609,279.861 377,274.5C 376.333,266.165 371.833,261.331 363.5,260C 352.041,259.4 340.708,260.233 329.5,262.5C 328.508,262.672 327.842,262.338 327.5,261.5C 328.842,260.207 330.509,259.374 332.5,259C 340.335,258.521 348.168,258.021 356,257.5C 363.774,257.312 370.607,259.646 376.5,264.5C 388.397,256.945 397.397,246.945 403.5,234.5C 404.338,234.842 404.672,235.508 404.5,236.5C 402.822,239.702 401.322,243.035 400,246.5C 397.128,249.037 394.628,251.87 392.5,255C 398.021,257.84 403.854,259.674 410,260.5C 408.603,253.648 407.769,246.648 407.5,239.5C 418.583,241.201 429.416,243.868 440,247.5C 438.228,239.911 436.395,232.244 434.5,224.5C 434.709,223.914 435.043,223.414 435.5,223C 447.446,220.536 459.446,218.203 471.5,216C 466.267,210.275 461.267,204.442 456.5,198.5C 456.5,198.167 456.5,197.833 456.5,197.5 Z"/></g>
<g><path style="opacity:1" fill="#fcfcfc" d="M 467.5,292.5 C 492.582,293.09 502.749,305.756 498,330.5C 487.107,347.848 472.607,351.682 454.5,342C 442.427,330.564 440.594,317.73 449,303.5C 454.168,297.845 460.334,294.178 467.5,292.5 Z"/></g>
<g><path style="opacity:1" fill="#7f4613" d="M 412.5,268.5 C 418.668,269.301 424.668,270.801 430.5,273C 439.135,277.986 447.801,282.986 456.5,288C 449.874,287.145 443.207,286.145 436.5,285C 421.212,284.124 406.712,286.958 393,293.5C 392.5,293.333 392,293.167 391.5,293C 393.208,289.707 394.208,286.207 394.5,282.5C 391.231,282.884 388.397,284.218 386,286.5C 384.837,284.715 384.17,282.715 384,280.5C 382.333,281.5 381,282.833 380,284.5C 379.462,279.829 378.962,275.162 378.5,270.5C 383.372,270.309 388.205,270.642 393,271.5C 399.736,271.083 406.236,270.083 412.5,268.5 Z"/></g>
<g><path style="opacity:1" fill="#f4cca6" d="M 695.5,236.5 C 696.458,236.047 697.292,235.381 698,234.5C 698.665,239.181 697.665,243.514 695,247.5C 690.198,254.961 684.698,261.794 678.5,268C 689.161,262.053 698.827,254.386 707.5,245C 709.402,243.699 711.402,243.032 713.5,243C 711.914,248.09 709.747,252.923 707,257.5C 697.958,266.374 689.125,275.374 680.5,284.5C 680.818,285.647 681.484,286.481 682.5,287C 688.403,287.856 694.069,289.523 699.5,292C 701.741,293.739 703.408,295.906 704.5,298.5C 692.921,297.237 681.254,297.237 669.5,298.5C 665.313,298.429 661.313,297.762 657.5,296.5C 656.136,299.017 654.136,300.851 651.5,302C 626.394,314.303 601.228,326.47 576,338.5C 567.353,345.142 558.686,351.808 550,358.5C 547.884,354.661 546.05,350.661 544.5,346.5C 541.833,344.167 539.167,341.833 536.5,339.5C 536.709,338.914 537.043,338.414 537.5,338C 547.855,331.155 557.855,323.822 567.5,316C 592.252,304.952 616.919,293.952 641.5,283C 644.612,281.694 647.779,280.528 651,279.5C 651.772,279.645 652.439,279.978 653,280.5C 653.333,278.833 653.667,277.167 654,275.5C 662.119,261.589 669.952,247.589 677.5,233.5C 678.66,235.146 679.327,236.979 679.5,239C 678.946,241.824 678.446,244.657 678,247.5C 675.318,250.35 672.484,253.016 669.5,255.5C 668.167,256.5 668.167,257.5 669.5,258.5C 672.187,254.979 675.353,251.979 679,249.5C 682.764,244.073 686.097,238.407 689,232.5C 689.167,233.833 689.333,235.167 689.5,236.5C 687.481,247.355 681.814,255.855 672.5,262C 673,262.167 673.5,262.333 674,262.5C 683.613,255.733 690.78,247.066 695.5,236.5 Z"/></g>
<g><path style="opacity:1" fill="#0f0e0d" d="M 456.5,302.5 C 458.153,301.201 459.653,301.534 461,303.5C 461,308.5 459,309.5 455,306.5C 454.227,304.648 454.727,303.314 456.5,302.5 Z"/></g>
<g><path style="opacity:1" fill="#a9a8a8" d="M 456.5,302.5 C 458.337,302.639 458.67,303.306 457.5,304.5C 456.702,304.043 456.369,303.376 456.5,302.5 Z"/></g>
<g><path style="opacity:1" fill="#814813" d="M 359.5,454.5 C 354.627,450.142 349.294,446.309 343.5,443C 311.697,412.284 302.864,375.784 317,333.5C 321.063,324.372 325.896,315.705 331.5,307.5C 335.275,306.909 339.275,306.242 343.5,305.5C 344.528,308.714 346.862,310.548 350.5,311C 347.439,311.849 344.772,313.349 342.5,315.5C 341.355,316.891 341.355,318.224 342.5,319.5C 348.395,321.265 353.728,320.265 358.5,316.5C 357.5,316.167 356.5,315.833 355.5,315.5C 352.49,316.348 349.49,316.848 346.5,317C 349.579,315.589 352.579,314.089 355.5,312.5C 353.452,309.858 350.786,308.025 347.5,307C 353.141,305.276 358.641,305.776 364,308.5C 364.833,308.167 365.667,307.833 366.5,307.5C 369.242,303.854 372.408,300.521 376,297.5C 377.009,295.975 377.509,294.308 377.5,292.5C 379.08,290.073 380.914,287.739 383,285.5C 383.202,287.256 383.702,288.922 384.5,290.5C 390.636,284.531 391.97,285.531 388.5,293.5C 388.709,294.086 389.043,294.586 389.5,295C 355.533,315.743 339.7,346.243 342,386.5C 343.593,412.017 353.927,433.017 373,449.5C 373.333,452.5 373.667,455.5 374,458.5C 378.788,465.434 378.288,465.934 372.5,460C 368.104,458.13 363.771,456.297 359.5,454.5 Z"/></g>
<g><path style="opacity:0.807" fill="#0c0c0c" d="M 229.5,327.5 C 229.557,328.609 229.89,329.609 230.5,330.5C 230.291,331.922 229.791,333.255 229,334.5C 212.075,356.005 197.409,379.005 185,403.5C 181.083,411.584 178.583,420.084 177.5,429C 178.545,433.721 180.878,437.721 184.5,441C 191.277,443.056 197.943,442.723 204.5,440C 226.7,418.966 248.367,397.466 269.5,375.5C 270.167,375.5 270.833,375.5 271.5,375.5C 270.496,376.683 269.662,378.016 269,379.5C 267.742,429.225 268.909,478.892 272.5,528.5C 271.408,550.504 270.408,572.504 269.5,594.5C 268.5,594.5 267.5,594.5 266.5,594.5C 267.341,572.491 268.341,550.325 269.5,528C 266.259,480.384 264.759,432.551 265,384.5C 245.108,405.06 224.608,424.894 203.5,444C 189.058,449.511 179.558,445.344 175,431.5C 174.333,428.167 174.333,424.833 175,421.5C 177.228,413.473 180.228,405.806 184,398.5C 191.833,384.78 199.499,371.447 207,358.5C 214.537,348.052 222.037,337.718 229.5,327.5 Z"/></g>
<g><path style="opacity:1" fill="#151514" d="M 291.5,225.5 C 292.482,234.06 295.315,242.06 300,249.5C 306.119,255.554 312.786,260.888 320,265.5C 322.448,264.027 324.948,262.693 327.5,261.5C 327.842,262.338 328.508,262.672 329.5,262.5C 318.667,270.657 308.667,279.99 299.5,290.5C 300.789,293.58 302.455,296.414 304.5,299C 307.512,299.78 310.345,300.947 313,302.5C 313.667,301.5 313.667,300.5 313,299.5C 309.337,296.361 308.17,292.527 309.5,288C 311.78,287.767 313.78,286.934 315.5,285.5C 314.11,283.831 313.777,282.164 314.5,280.5C 316.594,283.773 318.928,286.94 321.5,290C 321.167,290.5 320.833,291 320.5,291.5C 318.74,288.979 316.407,288.146 313.5,289C 310.968,289.612 310.135,291.112 311,293.5C 313.54,295.705 315.707,298.205 317.5,301C 324.584,304.389 329.751,302.556 333,295.5C 333.5,288.842 333.666,282.175 333.5,275.5C 334.5,275.5 335.5,275.5 336.5,275.5C 336.666,281.509 336.499,287.509 336,293.5C 335.064,297.207 333.231,300.374 330.5,303C 332.955,304.54 335.621,304.874 338.5,304C 342.182,300.597 345.682,297.097 349,293.5C 350.091,286.914 350.925,280.247 351.5,273.5C 355.068,285.239 352.401,295.072 343.5,303C 349.588,302.72 355.088,300.553 360,296.5C 362.701,289.095 363.868,281.428 363.5,273.5C 364.5,273.5 365.5,273.5 366.5,273.5C 366.695,277.547 366.362,281.547 365.5,285.5C 367.303,287.959 368.637,290.626 369.5,293.5C 367.61,293.703 366.11,293.037 365,291.5C 364.333,292.833 363.667,294.167 363,295.5C 361.877,299.055 363.211,301.055 367,301.5C 371.503,298.842 374.669,295.175 376.5,290.5C 376.328,291.492 376.662,292.158 377.5,292.5C 377.509,294.308 377.009,295.975 376,297.5C 372.408,300.521 369.242,303.854 366.5,307.5C 365.667,307.833 364.833,308.167 364,308.5C 358.641,305.776 353.141,305.276 347.5,307C 350.786,308.025 353.452,309.858 355.5,312.5C 352.579,314.089 349.579,315.589 346.5,317C 349.49,316.848 352.49,316.348 355.5,315.5C 356.5,315.833 357.5,316.167 358.5,316.5C 353.728,320.265 348.395,321.265 342.5,319.5C 341.355,318.224 341.355,316.891 342.5,315.5C 344.772,313.349 347.439,311.849 350.5,311C 346.862,310.548 344.528,308.714 343.5,305.5C 339.275,306.242 335.275,306.909 331.5,307.5C 325.896,315.705 321.063,324.372 317,333.5C 302.864,375.784 311.697,412.284 343.5,443C 349.294,446.309 354.627,450.142 359.5,454.5C 354.269,452.883 349.603,450.216 345.5,446.5C 345.167,447 344.833,447.5 344.5,448C 338.508,481.126 332.841,514.292 327.5,547.5C 329.167,547.5 330.833,547.5 332.5,547.5C 332.617,545.516 331.95,543.85 330.5,542.5C 330.808,541.692 331.308,541.025 332,540.5C 333.132,542.339 333.965,544.339 334.5,546.5C 343.482,547.665 352.482,547.832 361.5,547C 362.085,545.698 362.751,544.531 363.5,543.5C 364.167,543.5 364.833,543.5 365.5,543.5C 358.969,555.859 353.135,568.525 348,581.5C 347.333,582.833 347.333,584.167 348,585.5C 349.527,588.553 351.027,591.553 352.5,594.5C 351.5,594.5 350.5,594.5 349.5,594.5C 347.624,591.116 345.957,587.616 344.5,584C 346.427,578.446 348.427,572.946 350.5,567.5C 340.833,567.5 331.167,567.5 321.5,567.5C 320.604,576.749 318.604,585.749 315.5,594.5C 314.833,594.5 314.167,594.5 313.5,594.5C 318.712,575.022 323.212,555.356 327,535.5C 331.204,505.317 336.37,475.317 342.5,445.5C 326.129,430.431 315.129,412.098 309.5,390.5C 309.167,391 308.833,391.5 308.5,392C 314.117,417.967 320.283,443.8 327,469.5C 327.808,471.579 327.641,473.579 326.5,475.5C 325.808,474.975 325.308,474.308 325,473.5C 319.23,446.35 312.73,419.35 305.5,392.5C 307.059,390.111 308.393,387.611 309.5,385C 307.956,373.437 308.289,361.937 310.5,350.5C 310.012,347.526 308.512,345.193 306,343.5C 305.922,341.343 305.755,339.343 305.5,337.5C 294.618,350.616 283.285,363.283 271.5,375.5C 270.833,375.5 270.167,375.5 269.5,375.5C 282.957,359.539 296.624,343.705 310.5,328C 306.724,327.408 303.057,326.408 299.5,325C 295.31,320.467 291.477,315.634 288,310.5C 287.667,307.167 287.333,303.833 287,300.5C 258.635,330.531 230.635,360.864 203,391.5C 201.71,393.792 200.043,395.792 198,397.5C 196.955,401.344 195.455,405.01 193.5,408.5C 192.5,409.833 191.5,409.833 190.5,408.5C 193.412,402.342 196.579,396.342 200,390.5C 229.25,359.607 258.25,328.607 287,297.5C 287.483,296.552 287.649,295.552 287.5,294.5C 288.552,294.649 289.552,294.483 290.5,294C 299.393,286.111 308.06,277.778 316.5,269C 304.442,268.085 292.442,268.419 280.5,270C 276.367,273.131 272.534,276.631 269,280.5C 262.149,290.196 254.816,299.53 247,308.5C 242.374,316.607 236.874,323.94 230.5,330.5C 229.89,329.609 229.557,328.609 229.5,327.5C 242.096,309.66 255.596,291.993 270,274.5C 273.721,270.449 278.221,267.616 283.5,266C 293.833,265.667 304.167,265.333 314.5,265C 300.354,257.749 292.02,246.583 289.5,231.5C 290.833,230.833 290.833,230.167 289.5,229.5C 289.5,228.5 289.5,227.5 289.5,226.5C 290.492,226.672 291.158,226.338 291.5,225.5 Z"/></g>
<g><path style="opacity:1" fill="#f8f8f8" d="M 311.5,308.5 C 315.044,312.339 315.878,316.673 314,321.5C 310.193,325.041 306.026,325.207 301.5,322C 305.436,317.904 308.77,313.404 311.5,308.5 Z"/></g>
<g><path style="opacity:1" fill="#ededed" d="M 315.5,304.5 C 320.214,304.173 324.88,304.507 329.5,305.5C 321.31,317.548 314.977,330.548 310.5,344.5C 309.167,343.833 308.167,342.833 307.5,341.5C 309.066,339.038 309.399,336.538 308.5,334C 316.998,326.158 318.998,316.991 314.5,306.5C 314.863,305.817 315.196,305.15 315.5,304.5 Z"/></g>
<g><path style="opacity:1" fill="#754111" d="M 358.5,299.5 C 360.298,301.112 362.298,302.612 364.5,304C 361.208,304.936 358.208,304.436 355.5,302.5C 356.77,301.712 357.77,300.712 358.5,299.5 Z"/></g>
<g><path style="opacity:1" fill="#a3ede5" d="M 296.5,290.5 C 299.053,297.72 304.053,302.72 311.5,305.5C 306.857,310.131 302.69,315.131 299,320.5C 292.178,315.049 289.178,308.049 290,299.5C 292.666,296.824 294.833,293.824 296.5,290.5 Z"/></g>
<g><path style="opacity:1" fill="#f8fa6d" d="M 516.5,352.5 C 516.132,349.467 516.798,346.8 518.5,344.5C 520.846,341.321 523.679,338.654 527,336.5C 533.594,340.1 539.261,344.766 544,350.5C 545.53,356.922 547.363,363.256 549.5,369.5C 541.431,375.722 532.931,381.388 524,386.5C 523.281,374.692 520.781,363.358 516.5,352.5 Z"/></g>
<g><path style="opacity:1" fill="#dbba97" d="M 506.5,331.5 C 512.941,334.049 515.441,338.716 514,345.5C 510.91,341.078 508.41,336.411 506.5,331.5 Z"/></g>
<g><path style="opacity:1" fill="#fcfcfc" d="M 313.5,594.5 C 298.833,594.5 284.167,594.5 269.5,594.5C 270.408,572.504 271.408,550.504 272.5,528.5C 268.909,478.892 267.742,429.225 269,379.5C 269.662,378.016 270.496,376.683 271.5,375.5C 283.285,363.283 294.618,350.616 305.5,337.5C 305.755,339.343 305.922,341.343 306,343.5C 308.512,345.193 310.012,347.526 310.5,350.5C 308.289,361.937 307.956,373.437 309.5,385C 308.393,387.611 307.059,390.111 305.5,392.5C 312.73,419.35 319.23,446.35 325,473.5C 325.308,474.308 325.808,474.975 326.5,475.5C 327.641,473.579 327.808,471.579 327,469.5C 320.283,443.8 314.117,417.967 308.5,392C 308.833,391.5 309.167,391 309.5,390.5C 315.129,412.098 326.129,430.431 342.5,445.5C 336.37,475.317 331.204,505.317 327,535.5C 323.212,555.356 318.712,575.022 313.5,594.5 Z"/></g>
<g><path style="opacity:1" fill="#84863a" d="M 518.5,344.5 C 516.798,346.8 516.132,349.467 516.5,352.5C 515.527,350.052 515.194,347.385 515.5,344.5C 516.5,344.5 517.5,344.5 518.5,344.5 Z"/></g>
<g><path style="opacity:1" fill="#191816" d="M 413.5,345.5 C 427.855,345.762 438.688,352.096 446,364.5C 452.26,382.951 447.427,397.451 431.5,408C 410.458,415.062 395.958,408.229 388,387.5C 384.366,365.996 392.866,351.996 413.5,345.5 Z"/></g>
<g><path style="opacity:1" fill="#fcfcfc" d="M 412.5,348.5 C 435.388,348.889 446.554,360.555 446,383.5C 440.482,403.356 427.649,411.189 407.5,407C 393.903,399.974 388.069,388.808 390,373.5C 392.138,360.202 399.638,351.869 412.5,348.5 Z"/></g>
<g><path style="opacity:1" fill="#191613" d="M 397.5,330.5 C 398.695,330.866 399.361,331.699 399.5,333C 398.057,339.937 396.224,346.771 394,353.5C 389.46,359.698 384.294,365.365 378.5,370.5C 377.417,369.635 377.251,368.635 378,367.5C 389.785,357.93 396.285,345.596 397.5,330.5 Z"/></g>
<g><path style="opacity:1" fill="#121211" d="M 406.5,354.5 C 408.153,353.201 409.653,353.534 411,355.5C 411,360.5 409,361.5 405,358.5C 404.251,357.365 404.417,356.365 405.5,355.5C 406.675,356.855 407.675,356.688 408.5,355C 407.906,354.536 407.239,354.369 406.5,354.5 Z"/></g>
<g><path style="opacity:1" fill="#1c1915" d="M 462.5,361.5 C 468.075,361.582 473.409,362.748 478.5,365C 480.124,366.117 481.124,367.617 481.5,369.5C 477.56,376.636 471.56,379.803 463.5,379C 465.608,378.64 467.608,377.973 469.5,377C 473.165,375.014 476.165,372.347 478.5,369C 478.355,368.228 478.022,367.561 477.5,367C 472.588,365.584 467.588,364.751 462.5,364.5C 462.5,363.5 462.5,362.5 462.5,361.5 Z"/></g>
<g><path style="opacity:1" fill="#1b1310" d="M 498.5,373.5 C 500.857,373.337 503.19,373.503 505.5,374C 506.718,383.448 504.218,391.948 498,399.5C 493.05,404.902 487.55,409.736 481.5,414C 476.494,417.626 471.161,418.292 465.5,416C 464.383,412.927 464.216,409.76 465,406.5C 470.718,403.03 476.218,399.197 481.5,395C 488.204,388.484 493.871,381.318 498.5,373.5 Z"/></g>
<g><path style="opacity:1" fill="#650000" d="M 501.5,374.5 C 502.5,374.5 503.5,374.5 504.5,374.5C 504.665,378.182 504.499,381.848 504,385.5C 498.969,395.859 491.803,404.359 482.5,411C 479.114,412.948 475.614,414.448 472,415.5C 467.314,415.87 465.314,413.87 466,409.5C 471.063,405.051 476.563,401.217 482.5,398C 489.828,390.852 496.162,383.019 501.5,374.5 Z"/></g>
<g><path style="opacity:1" fill="#fbfbfb" d="M 458.5,509.5 C 456.03,505.249 452.364,502.416 447.5,501C 442.13,500.562 436.797,500.562 431.5,501C 433.439,499.568 434.772,497.735 435.5,495.5C 443.874,488.127 451.541,480.127 458.5,471.5C 467.99,466.922 477.324,462.089 486.5,457C 492.928,452.577 498.761,447.41 504,441.5C 515.551,426.059 522.384,408.725 524.5,389.5C 527.659,386.418 531.325,384.084 535.5,382.5C 552.068,389.781 556.234,401.448 548,417.5C 537.399,434.375 527.065,451.375 517,468.5C 501.952,486.759 486.786,504.926 471.5,523C 470.668,523.688 470.002,523.521 469.5,522.5C 466.156,517.829 462.49,513.495 458.5,509.5 Z"/></g>
<g><path style="opacity:1" fill="#a3eee5" d="M 359.5,454.5 C 366.776,460.974 375.11,465.64 384.5,468.5C 386.564,469.868 388.898,470.868 391.5,471.5C 381.934,488.964 372.1,506.297 362,523.5C 360.642,529.012 361.809,533.846 365.5,538C 364.68,539.8 364.014,541.634 363.5,543.5C 362.751,544.531 362.085,545.698 361.5,547C 352.482,547.832 343.482,547.665 334.5,546.5C 333.965,544.339 333.132,542.339 332,540.5C 331.308,541.025 330.808,541.692 330.5,542.5C 331.95,543.85 332.617,545.516 332.5,547.5C 330.833,547.5 329.167,547.5 327.5,547.5C 332.841,514.292 338.508,481.126 344.5,448C 344.833,447.5 345.167,447 345.5,446.5C 349.603,450.216 354.269,452.883 359.5,454.5 Z"/></g>
<g><path style="opacity:1" fill="#f6fb6e" d="M 448.5,474.5 C 450.144,474.714 451.644,474.38 453,473.5C 453.667,474.167 453.667,474.833 453,475.5C 446.325,482.008 439.825,488.675 433.5,495.5C 430.854,497.479 428.521,499.812 426.5,502.5C 429.383,506.481 428.883,509.815 425,512.5C 424.517,513.448 424.351,514.448 424.5,515.5C 420.824,516.08 418.824,514.58 418.5,511C 421.787,502.463 425.453,494.13 429.5,486C 427.112,485.135 425.612,485.968 425,488.5C 421.019,498.974 416.519,509.141 411.5,519C 404.769,522.435 398.102,525.935 391.5,529.5C 383.564,524.58 374.898,522.414 365.5,523C 375.078,507.617 383.911,491.784 392,475.5C 393.62,473.759 395.12,471.925 396.5,470C 398.515,469.576 400.349,468.742 402,467.5C 411.284,470.626 420.784,473.126 430.5,475C 436.681,475.819 442.681,475.653 448.5,474.5 Z"/></g>
<g><path style="opacity:1" fill="#fbfe6e" d="M 552.5,594.5 C 514.167,594.5 475.833,594.5 437.5,594.5C 436.332,589.162 434.665,583.996 432.5,579C 438.827,571.192 441.16,562.359 439.5,552.5C 441.036,549.222 442.369,545.889 443.5,542.5C 445.099,537.431 445.933,532.098 446,526.5C 446.689,525.643 447.522,524.977 448.5,524.5C 451.035,526.85 454.035,528.35 457.5,529C 462.854,529.529 468.187,529.362 473.5,528.5C 473.343,527.127 473.51,525.793 474,524.5C 487.733,507.725 501.566,491.059 515.5,474.5C 518.122,479.985 520.289,485.651 522,491.5C 532.071,525.878 542.238,560.212 552.5,594.5 Z"/></g>
<g><path style="opacity:1" fill="#a3ede5" d="M 457.5,510.5 C 453.203,515.298 448.703,519.965 444,524.5C 443.392,522.846 442.892,521.179 442.5,519.5C 438.301,515.379 433.301,513.546 427.5,514C 430.167,510.667 432.833,507.333 435.5,504C 440.167,503.333 444.833,503.333 449.5,504C 452.331,506.001 454.997,508.167 457.5,510.5 Z"/></g>
<g><path style="opacity:1" fill="#e7e7e7" d="M 458.5,513.5 C 460.017,513.511 461.184,514.177 462,515.5C 464.5,519.167 467,522.833 469.5,526.5C 462.344,528.717 456.01,527.384 450.5,522.5C 453.189,519.48 455.856,516.48 458.5,513.5 Z"/></g>
<g><path style="opacity:1" fill="#e1d6c7" d="M 441.5,520.5 C 443.015,525.968 443.682,531.634 443.5,537.5C 441.344,546.723 436.511,554.389 429,560.5C 427.186,562.715 426.686,565.048 427.5,567.5C 429.623,562.262 432.957,557.928 437.5,554.5C 438.557,563.301 436.224,571.134 430.5,578C 426.32,580.276 422.487,579.776 419,576.5C 416.789,571.702 415.289,566.702 414.5,561.5C 414.808,559.076 414.474,556.743 413.5,554.5C 412.192,558.315 412.192,561.981 413.5,565.5C 413.93,569.958 415.264,574.124 417.5,578C 414.773,578.818 412.106,578.652 409.5,577.5C 405.366,569.731 403.032,561.398 402.5,552.5C 401.322,560.102 402.322,567.435 405.5,574.5C 400.63,575.166 397.797,572.832 397,567.5C 396.567,560.229 396.401,553.229 396.5,546.5C 395.109,548.61 394.442,550.943 394.5,553.5C 394.96,558.744 395.626,563.91 396.5,569C 394.7,569.236 393.034,568.736 391.5,567.5C 390.367,559.883 390.2,552.216 391,544.5C 392.763,539.959 395.263,535.959 398.5,532.5C 397.998,531.479 397.332,531.312 396.5,532C 394.667,534.5 392.833,537 391,539.5C 390.333,537.167 390.333,534.833 391,532.5C 392.558,530.641 394.391,529.141 396.5,528C 405.763,523.207 415.43,519.207 425.5,516C 428.5,515.333 431.5,515.333 434.5,516C 436.717,517.723 439.05,519.223 441.5,520.5 Z"/></g>
<g><path style="opacity:1" fill="#1b1a16" d="M 431.5,472.5 C 436.735,474.45 442.402,475.117 448.5,474.5C 442.681,475.653 436.681,475.819 430.5,475C 420.784,473.126 411.284,470.626 402,467.5C 400.349,468.742 398.515,469.576 396.5,470C 395.12,471.925 393.62,473.759 392,475.5C 383.911,491.784 375.078,507.617 365.5,523C 374.898,522.414 383.564,524.58 391.5,529.5C 398.102,525.935 404.769,522.435 411.5,519C 416.519,509.141 421.019,498.974 425,488.5C 425.612,485.968 427.112,485.135 429.5,486C 425.453,494.13 421.787,502.463 418.5,511C 418.824,514.58 420.824,516.08 424.5,515.5C 424.351,514.448 424.517,513.448 425,512.5C 428.883,509.815 429.383,506.481 426.5,502.5C 428.521,499.812 430.854,497.479 433.5,495.5C 434.167,495.5 434.833,495.5 435.5,495.5C 434.772,497.735 433.439,499.568 431.5,501C 436.797,500.562 442.13,500.562 447.5,501C 452.364,502.416 456.03,505.249 458.5,509.5C 457.833,509.5 457.5,509.833 457.5,510.5C 454.997,508.167 452.331,506.001 449.5,504C 444.833,503.333 440.167,503.333 435.5,504C 432.833,507.333 430.167,510.667 427.5,514C 433.301,513.546 438.301,515.379 442.5,519.5C 441.833,519.5 441.5,519.833 441.5,520.5C 439.05,519.223 436.717,517.723 434.5,516C 431.5,515.333 428.5,515.333 425.5,516C 415.43,519.207 405.763,523.207 396.5,528C 394.391,529.141 392.558,530.641 391,532.5C 390.333,534.833 390.333,537.167 391,539.5C 392.833,537 394.667,534.5 396.5,532C 397.332,531.312 397.998,531.479 398.5,532.5C 395.263,535.959 392.763,539.959 391,544.5C 390.2,552.216 390.367,559.883 391.5,567.5C 393.034,568.736 394.7,569.236 396.5,569C 395.626,563.91 394.96,558.744 394.5,553.5C 394.442,550.943 395.109,548.61 396.5,546.5C 396.401,553.229 396.567,560.229 397,567.5C 397.797,572.832 400.63,575.166 405.5,574.5C 402.322,567.435 401.322,560.102 402.5,552.5C 403.032,561.398 405.366,569.731 409.5,577.5C 412.106,578.652 414.773,578.818 417.5,578C 415.264,574.124 413.93,569.958 413.5,565.5C 413.232,563.901 413.566,562.568 414.5,561.5C 415.289,566.702 416.789,571.702 419,576.5C 422.487,579.776 426.32,580.276 430.5,578C 436.224,571.134 438.557,563.301 437.5,554.5C 432.957,557.928 429.623,562.262 427.5,567.5C 426.686,565.048 427.186,562.715 429,560.5C 436.511,554.389 441.344,546.723 443.5,537.5C 443.5,539.167 443.5,540.833 443.5,542.5C 442.369,545.889 441.036,549.222 439.5,552.5C 441.16,562.359 438.827,571.192 432.5,579C 434.665,583.996 436.332,589.162 437.5,594.5C 436.833,594.5 436.167,594.5 435.5,594.5C 434.346,589.877 432.679,585.377 430.5,581C 426.437,582.455 422.937,581.621 420,578.5C 416.817,580.523 413.317,581.023 409.5,580C 406.025,578.088 402.359,576.421 398.5,575C 395.564,572.413 392.564,569.913 389.5,567.5C 386.059,565.994 382.892,566.327 380,568.5C 378.977,572.879 377.144,576.879 374.5,580.5C 378.148,585.481 382.148,590.147 386.5,594.5C 385.5,594.5 384.5,594.5 383.5,594.5C 377.408,587.343 371.075,580.343 364.5,573.5C 365,573.167 365.5,572.833 366,572.5C 367.978,574.478 369.978,576.478 372,578.5C 378.204,567.26 384.037,555.76 389.5,544C 388.384,539.801 388.218,535.634 389,531.5C 384.534,527.734 379.367,526.067 373.5,526.5C 371.092,532.315 368.425,537.982 365.5,543.5C 364.833,543.5 364.167,543.5 363.5,543.5C 364.014,541.634 364.68,539.8 365.5,538C 361.809,533.846 360.642,529.012 362,523.5C 372.1,506.297 381.934,488.964 391.5,471.5C 388.898,470.868 386.564,469.868 384.5,468.5C 384.5,467.833 384.5,467.167 384.5,466.5C 388.388,467.973 392.388,468.473 396.5,468C 399.597,465.704 402.763,463.537 406,461.5C 406.5,461.833 407,462.167 407.5,462.5C 405.73,463.82 405.397,465.32 406.5,467C 414.883,468.753 423.216,470.587 431.5,472.5 Z"/></g>
<g><path style="opacity:1" fill="#ebebeb" d="M 416.5,513.5 C 418.76,514.238 418.927,515.238 417,516.5C 416.517,515.552 416.351,514.552 416.5,513.5 Z"/></g>
<g><path style="opacity:1" fill="#a5a4a4" d="M 429.5,504.5 C 431.337,504.639 431.67,505.306 430.5,506.5C 429.702,506.043 429.369,505.376 429.5,504.5 Z"/></g>
<g><path style="opacity:1" fill="#f0f36c" d="M 364.5,526.5 C 366.604,526.201 368.604,526.534 370.5,527.5C 366.711,536.698 364.711,536.365 364.5,526.5 Z"/></g>
<g><path style="opacity:1" fill="#f5cca6" d="M 383.5,594.5 C 373.167,594.5 362.833,594.5 352.5,594.5C 351.027,591.553 349.527,588.553 348,585.5C 347.333,584.167 347.333,582.833 348,581.5C 353.135,568.525 358.969,555.859 365.5,543.5C 368.425,537.982 371.092,532.315 373.5,526.5C 379.367,526.067 384.534,527.734 389,531.5C 388.218,535.634 388.384,539.801 389.5,544C 384.037,555.76 378.204,567.26 372,578.5C 369.978,576.478 367.978,574.478 366,572.5C 365.5,572.833 365,573.167 364.5,573.5C 371.075,580.343 377.408,587.343 383.5,594.5 Z"/></g>
<g><path style="opacity:1" fill="#291a04" d="M 326.5,550.5 C 337.505,550.333 348.505,550.5 359.5,551C 357.039,555.421 354.706,559.921 352.5,564.5C 342.856,565.498 333.19,565.832 323.5,565.5C 324.025,560.4 325.025,555.4 326.5,550.5 Z"/></g>
<g><path style="opacity:1" fill="#dad948" d="M 387.5,552.5 C 388.483,556.298 388.817,560.298 388.5,564.5C 386.473,564.662 384.473,564.495 382.5,564C 384.308,560.219 385.974,556.385 387.5,552.5 Z"/></g>
<g><path style="opacity:1" fill="#5c5955" d="M 414.5,561.5 C 413.566,562.568 413.232,563.901 413.5,565.5C 412.192,561.981 412.192,558.315 413.5,554.5C 414.474,556.743 414.808,559.076 414.5,561.5 Z"/></g>
<g><path style="opacity:1" fill="#755f2e" d="M 435.5,594.5 C 419.167,594.5 402.833,594.5 386.5,594.5C 382.148,590.147 378.148,585.481 374.5,580.5C 377.144,576.879 378.977,572.879 380,568.5C 382.892,566.327 386.059,565.994 389.5,567.5C 392.564,569.913 395.564,572.413 398.5,575C 402.359,576.421 406.025,578.088 409.5,580C 413.317,581.023 416.817,580.523 420,578.5C 422.937,581.621 426.437,582.455 430.5,581C 432.679,585.377 434.346,589.877 435.5,594.5 Z"/></g>
<g><path style="opacity:1" fill="#735e2e" d="M 349.5,594.5 C 338.167,594.5 326.833,594.5 315.5,594.5C 318.604,585.749 320.604,576.749 321.5,567.5C 331.167,567.5 340.833,567.5 350.5,567.5C 348.427,572.946 346.427,578.446 344.5,584C 345.957,587.616 347.624,591.116 349.5,594.5 Z"/></g>
</svg>
